<svg id="Layer_1" data-name="Layer 1" xmlns="http://www.w3.org/2000/svg" viewBox="54 18.48 360.3 238.6"><defs><style>.cls-1{fill:#fff;}.cls-2,.cls-3{fill:none;stroke:#fff;stroke-miterlimit:10;}.cls-2{stroke-width:4.93px;}.cls-3{stroke-width:4.75px;}</style></defs><title>Untitled-3</title><path class="cls-1" d="M73.4,204.34a17.09,17.09,0,0,1-8.58-14.78V170.69a29.16,29.16,0,0,0,3,2l16.84,9.64a17.06,17.06,0,0,1,8.58,14.76v18.6Z"/><path class="cls-1" d="M125.68,171.34a17,17,0,0,1-8.58,14.78l-16.84,9.65a27,27,0,0,0-3,1.91V175a17.06,17.06,0,0,1,8.58-14.76l16.84-9.65a28.93,28.93,0,0,0,3-2Z"/><path class="cls-1" d="M125.68,132.08a17,17,0,0,1-8.58,14.78l-16.84,9.65a28.66,28.66,0,0,0-3,1.92v-22.7A17,17,0,0,1,105.89,121l16.84-9.65a27.44,27.44,0,0,0,3-2Z"/><path class="cls-1" d="M93.2,143.25a27.35,27.35,0,0,0-3-1.95L73.4,131.65a17.05,17.05,0,0,1-8.58-14.74V94.21a29.16,29.16,0,0,0,3,2l16.84,9.64a17.06,17.06,0,0,1,8.58,14.75Z"/><path class="cls-1" d="M67.78,134.09l16.84,9.65a17.11,17.11,0,0,1,8.58,14.75v22.7a29,29,0,0,0-3-2L73.4,169.59a17.06,17.06,0,0,1-8.58-14.75V132.15a29,29,0,0,0,3,1.94Z"/><path class="cls-1" d="M105.89,82.65,122.73,73a27.44,27.44,0,0,0,3-2v22.7a17,17,0,0,1-8.58,14.79l-16.84,9.64a28.75,28.75,0,0,0-3,1.93V97.4a17.06,17.06,0,0,1,8.58-14.75Z"/><path class="cls-1" d="M93.49,82.72a5.47,5.47,0,0,0-.7.43C85.39,90,77,91.87,67.6,88.2a22.62,22.62,0,0,1-10.71-8.84,49.6,49.6,0,0,1-2.78-5.13,1.52,1.52,0,0,1,0-1.15A24.81,24.81,0,0,1,65.34,60.15C73,56,80.62,56.2,88.13,60.43A39.59,39.59,0,0,1,92.74,64c.18.14.34.3.51.46l.29-.08m-10.91,19c.22.05.3.09.35.07a19.45,19.45,0,0,0,10.18-9.31A1.5,1.5,0,0,0,93.08,73a17.2,17.2,0,0,0-4.76-6.09,14.2,14.2,0,0,0-5.25-3,12.47,12.47,0,0,1,4.55,9.84A11.75,11.75,0,0,1,82.63,83.38ZM70.05,63.87a2.79,2.79,0,0,0-.54,0,19.39,19.39,0,0,0-9.78,9.18,1.55,1.55,0,0,0,.05,1.21,19.09,19.09,0,0,0,7.65,8c.74.44,1.54.75,2.32,1.12l.2-.2a11.62,11.62,0,0,1-4.74-9.58A12,12,0,0,1,70.05,63.87Z"/><path class="cls-2" d="M97.13,24.72c-.86,2.45-2.79,188.38-2,220.53.11,4.69,3.09,8.41,6.74,8.41h37c6.33,0,11.46-6.6,11.46-14.73V34.73a4.11,4.11,0,0,1,4.1-4.1l59.24.26a4.42,4.42,0,0,1,4.42,4.42V52.53"/><path class="cls-1" d="M264,128.21v47.63a11.64,11.64,0,0,1-3.83,8.63l-37.53,32.89a7.53,7.53,0,0,1-10.38-.25l-37.62-33.52a8.81,8.81,0,0,1-2.58-6.24V114.72c13.13,1.42,14,13.49,28.77,13.49,15.68,0,15.68-13.63,31.37-13.63s15.69,13.63,31.38,13.63Z"/><path class="cls-2" d="M172.09,114.72v62.63a8.81,8.81,0,0,0,2.58,6.24l37.62,33.52a7.53,7.53,0,0,0,10.38.25l37.53-32.89a11.64,11.64,0,0,0,3.83-8.63V68.77c0-9.38-7.26-17.06-16.13-17.06H189.58c-9.62,0-17.49,8.33-17.49,18.51Z"/><path class="cls-2" d="M169.48,114.58a23.91,23.91,0,0,1,2.61.14c13.13,1.42,14,13.49,28.77,13.49,15.68,0,15.68-13.63,31.37-13.63s15.69,13.63,31.38,13.63"/><path class="cls-1" d="M137.85,18.59c-15.24,8.77-27.8-5.79-38.63,2.84-1.52,1.33-2.44.91-4,1.78.85,6.53.4,13.28.89,20,19.15-11.58,27.66,4.23,40.89-5.44C138.29,31.54,137.53,25,137.85,18.59Z"/><path class="cls-2" d="M363.05,222.26c.37,33.28-10.94,31.73-23.86,31.73H304.13a7,7,0,0,1-7-6.93V137.62a10,10,0,0,0-10.11-10l-25,.54"/><path class="cls-2" d="M411.31,170.09l.15-75.77A45.45,45.45,0,0,0,366,48.87h-7.08a45.44,45.44,0,0,0-45.45,45.45l.32,75.77"/><path class="cls-2" d="M362.81,50.49V61.73a6,6,0,0,0,6,6h7.24a6,6,0,0,0,6-6V51.48"/><path class="cls-2" d="M343.51,50.49V61.73a6,6,0,0,0,6,6h7.24a6,6,0,0,0,6-6V51.48"/><path class="cls-2" d="M341,53.46l.47.92a9.41,9.41,0,0,1-3.19,12.26h0a7.64,7.64,0,0,1-10.81-3.3l-.65-1.28"/><path class="cls-2" d="M317.49,79.54l1.18.7a7.64,7.64,0,0,0,10.79-3.38h0a9.41,9.41,0,0,0-3.27-12.23l-.86-.51"/><path class="cls-2" d="M313.35,99.05l1.32.27c4.31.86,8.45-2.23,9.25-6.9h0c.83-4.89-2.15-9.59-6.67-10.49l-1-.19"/><path class="cls-2" d="M312.33,117.21l1.32.26c4.32.86,8.46-2.22,9.25-6.9h0c.84-4.89-2.15-9.58-6.66-10.48l-1-.19"/><path class="cls-2" d="M313.35,134.81l1.32.27c4.31.86,8.45-2.23,9.25-6.9h0c.83-4.89-2.15-9.59-6.67-10.49l-1-.19"/><path class="cls-2" d="M312.33,152.42l1.32.26c4.32.86,8.46-2.22,9.25-6.9h0c.84-4.89-2.15-9.58-6.66-10.48l-1-.19"/><path class="cls-2" d="M399.15,62.15l-.66,1.27a7.62,7.62,0,0,1-10.81,3.3h0a9.4,9.4,0,0,1-3.19-12.25l.48-.92"/><path class="cls-2" d="M408.44,79.63l-1.18.7a7.64,7.64,0,0,1-10.79-3.39h0a9.4,9.4,0,0,1,3.28-12.23l.85-.51"/><path class="cls-2" d="M412.59,99.14l-1.33.27c-4.31.86-8.45-2.23-9.25-6.9h0c-.83-4.89,2.16-9.59,6.67-10.49l1-.19"/><path class="cls-2" d="M412.84,117.48l-1.33.22c-4.34.73-8.38-2.49-9-7.18h0c-.68-4.92,2.45-9.52,7-10.27l1-.17"/><path class="cls-2" d="M411.57,134.9l-1.32.27c-4.32.86-8.46-2.23-9.25-6.9h0c-.84-4.89,2.15-9.59,6.66-10.49l1-.19"/><path class="cls-2" d="M412.59,152.51l-1.33.26c-4.31.86-8.45-2.23-9.25-6.9h0c-.83-4.89,2.16-9.58,6.67-10.49l1-.19"/><path class="cls-1" d="M333.39,150.92V94.48c0-3.58,4-6.47,9-6.47h2.17c5,0,9,2.89,9,6.47V109c0,3.57,4,6.47,9,6.47h1.45c5,0,9-2.9,9-6.47V94.48c0-3.58,4.05-6.47,9-6.47h0c5,0,9,2.89,9,6.47v56.44c0,3.58-4,6.48-9,6.48H342.42C337.43,157.4,333.39,154.5,333.39,150.92Z"/><path class="cls-1" d="M349.25,50.42c3.48-5.31,7.21-12.85,14.54-12.74,7.67.11,10.26,7.56,13.32,13.3,1.49,2.8,5.75.31,4.26-2.49-4.05-7.61-7.72-15.61-17.58-15.75C354.4,32.61,349.53,41,345,47.93c-1.74,2.66,2.53,5.13,4.26,2.49Z"/><path class="cls-2" d="M370.5,225.7c25.38-1.18,41.11-21.39,41.11-47.06v-5.33a18.1,18.1,0,0,0-18.1-18.1H331.66a18.09,18.09,0,0,0-18.09,18.1v3c0,26.16,16.61,47.06,42.17,49.37"/><line class="cls-2" x1="363.06" y1="157.65" x2="363.06" y2="223.2"/><path class="cls-3" d="M232,190l-53.3,36.26s18.54,10.36,2.56,27L161.9,224.74l51.35-34.93"/><path class="cls-3" d="M230.71,182.68l30.67,53.74s10.59-18.41,27-2.23l-28.69,19-31-51.77"/></svg>